# Blender v2.79 (sub 0) OBJ File: 'house.blend'
# www.blender.org
mtllib basementtestwalls.mtl
o Grid_Grid.001
v 3.839998 -0.000000 2.239991
v 4.480000 -0.000000 2.239991
v 4.480000 0.640000 2.239991
v 3.839998 0.640000 2.239991
v 4.480000 0.000000 -1.600008
v 1.279999 -0.000000 2.239991
v 1.279999 0.640000 2.239991
v 1.279999 0.000000 -1.600008
v 1.279999 0.640000 -1.600008
v 1.919998 0.000000 -1.600008
v 1.919998 0.640000 -1.600008
v -4.480001 -0.000000 0.319992
v -4.480001 0.640000 0.319992
v -3.200002 -0.000000 0.319992
v -3.200002 0.640000 0.319992
v -1.920002 0.000000 -1.600008
v -1.920002 0.640000 -1.600008
v 1.919998 -0.000000 2.239991
v 1.919998 0.640000 2.239991
v 3.199999 -0.000000 2.239991
v 3.199999 0.640000 2.239991
v 1.919998 -0.000000 1.599991
v 1.919998 0.640000 1.599991
v 3.839998 -0.000000 1.599991
v 3.839998 0.640000 1.599991
v -4.480001 -0.000000 0.959991
v -4.480001 0.640000 0.959991
v -1.920002 -0.000000 0.959991
v -1.920002 0.640000 0.959991
v -2.560001 -0.000000 0.959991
v -2.560001 0.640000 0.959991
v -3.200002 -0.000000 0.959991
v -3.200002 0.640000 0.959991
v -4.480001 -0.000000 2.879992
v 4.480000 -0.000000 2.879992
v 4.480000 -0.000000 1.599991
v 4.480000 0.640000 1.599991
v 3.199999 0.640000 1.599991
v -2.560001 0.640000 -1.600008
v 3.199999 -0.000000 1.599991
v -2.560001 0.000000 -1.600008
v -4.480001 0.000000 -1.600008
v 5.119999 0.000000 -1.600008
v 5.119999 0.000000 -2.240009
v -5.120002 -0.000000 2.879992
v -5.120002 0.000000 -2.240009
v -5.120002 0.000000 -1.600008
v 5.119999 -0.000000 2.879992
v -4.480001 1.280000 -1.600008
v 4.480000 1.279999 2.879992
v -5.120002 1.280000 -1.600008
v -5.120002 1.280000 -2.240009
v -5.120002 1.279999 2.879992
v 5.119999 1.280000 -2.240009
v -4.480001 1.279999 2.879992
v 5.119999 1.280000 -1.600008
v 4.480000 1.280000 -1.600008
v 5.119999 1.279999 2.879992
vt 0.000000 0.000001
vt 1.000000 0.000000
vt 1.000000 0.999999
vt -0.000000 1.000000
vt 0.000100 0.000100
vt 0.999900 0.000100
vt 0.999900 0.999897
vt 0.000100 0.999897
vt 0.000000 0.000000
vt 1.000000 0.000000
vt 1.000000 1.000000
vt 0.000000 1.000000
vt 0.000000 0.000000
vt 1.000000 0.000000
vt 1.000000 1.000000
vt 0.000000 1.000000
vt 0.000100 0.000100
vt 0.999900 0.000100
vt 0.999900 0.999900
vt 0.000100 0.999900
vt 0.000101 0.000099
vt 0.999899 0.000099
vt 0.999899 0.999899
vt 0.000101 0.999899
vt 0.000101 0.000099
vt 0.999899 0.000099
vt 0.999899 0.999899
vt 0.000101 0.999899
vt 1.000000 0.000000
vt 1.000000 0.999999
vt 0.000000 1.000000
vt 0.000000 0.000001
vt 0.000100 0.000100
vt 0.999900 0.000100
vt 0.999900 0.999897
vt 0.000100 0.999897
vt 0.000100 0.000100
vt 0.999900 0.000100
vt 0.999900 0.999900
vt 0.000100 0.999900
vt 0.000101 0.000099
vt 0.999899 0.000099
vt 0.999899 0.999899
vt 0.000101 0.999899
vt 1.000000 0.000000
vt 1.000000 1.000000
vt 0.000000 1.000000
vt 0.000000 -0.000000
vt 0.000000 0.000000
vt 1.000000 0.000000
vt 1.000000 1.000000
vt 0.000000 1.000000
vt 1.000000 0.000000
vt 1.000000 1.000000
vt 0.000000 1.000000
vt 0.000000 0.000000
vt 0.300326 0.700217
vt 0.100380 0.700217
vt 0.100380 0.600244
vt 0.300326 0.600244
vt 0.312500 0.375000
vt 0.312500 0.875000
vt 0.250000 0.875000
vt 0.250000 0.375000
vt 0.875000 0.125000
vt 0.937500 0.125000
vt 0.937500 0.250000
vt 0.875000 0.250000
vt 0.687500 0.250000
vt 0.687500 0.875000
vt 0.625000 0.875000
vt 0.625000 0.125000
vt 0.687500 0.125000
vt 0.812500 0.125000
vt 0.812500 0.250000
vt 0.062500 0.375000
vt 0.187500 0.375000
vt 0.187500 0.500000
vt 0.062500 0.500000
vt 0.062500 0.875000
vt 0.937500 0.875000
vt 1.000000 0.875000
vt 1.000000 1.000000
vt 0.000000 1.000000
vt 0.000000 0.875000
vt 0.937500 0.000000
vt 1.000000 0.000000
vt 0.000000 0.000000
vt 0.062500 0.000000
vt 0.733284 0.999899
vt 0.599978 0.500001
vt 0.599978 0.000103
vt 0.733284 0.000104
vt 0.966570 0.000104
vt 0.966570 0.999900
vt 0.933243 0.500002
vt 0.933243 0.000104
vt 0.266712 0.999898
vt 0.166732 0.500002
vt 0.166732 0.000106
vt 0.266712 0.000105
vt 0.133406 0.500002
vt 0.033426 0.999900
vt 0.033426 0.000107
vt 0.133406 0.000106
vt 0.366691 0.500001
vt 0.366691 0.000105
vt 0.566651 0.500001
vt 0.400017 0.500001
vt 0.400017 0.000101
vt 0.566651 0.000100
vt 0.899917 0.500002
vt 0.899917 0.000104
vt 0.000000 0.000000
vt 0.000000 0.000000
vt 0.000000 0.000000
vt 0.937500 0.777778
vt 0.687500 0.777778
vt 0.625000 0.777778
vt 0.312500 0.777778
vt 0.250000 0.777778
vt 0.062500 0.777778
vt 0.000000 0.000000
vt 0.000000 0.000000
vt 0.000000 0.000000
vt 0.000000 0.000000
vt 0.000000 0.000000
vt 0.000000 0.000000
vt 1.000000 0.888889
vt 0.000000 0.000000
vt 0.000000 0.000000
vt 0.312500 0.333334
vt 0.250000 0.333334
vt 0.062500 0.444445
vt 0.062500 0.333334
vt 0.000000 0.000000
vt 0.187500 0.444445
vt 0.187500 0.333334
vt 0.687500 0.222222
vt 0.687500 0.111111
vt 0.625000 0.111111
vt 0.937500 0.000000
vt 0.937500 0.111111
vt 0.937500 0.222222
vt 0.875000 0.111111
vt 0.875000 0.222222
vt 0.812500 0.222222
vt 0.812500 0.111111
vt 0.999896 0.000104
vt 0.999896 0.999900
vt 0.000100 0.999900
vt 0.000100 0.000107
vn -1.0000 0.0000 0.0000
vn 0.0000 0.0000 1.0000
vn 1.0000 0.0000 0.0000
vn 0.0000 0.0000 -1.0000
vn 0.0000 1.0000 0.0000
vn 0.0000 -1.0000 -0.0000
usemtl Material.001
s off
f 41/1/1 30/2/1 31/3/1 39/4/1
f 1/5/2 2/6/2 3/7/2 4/8/2
f 28/9/3 16/10/3 17/11/3 29/12/3
f 40/13/4 22/14/4 23/15/4 38/16/4
f 24/17/1 1/18/1 4/19/1 25/20/1
f 30/21/2 28/22/2 29/23/2 31/24/2
f 32/25/3 14/26/3 15/27/3 33/28/3
f 6/29/1 7/30/1 9/31/1 8/32/1
f 36/33/4 24/34/4 25/35/4 37/36/4
f 20/37/3 40/38/3 38/39/3 21/40/3
f 6/41/2 18/42/2 19/43/2 7/44/2
f 10/45/3 11/46/3 23/47/3 22/48/3
f 18/49/2 20/50/2 21/51/2 19/52/2
f 32/53/2 33/54/2 27/55/2 26/56/2
f 14/57/4 12/58/4 13/59/4 15/60/4
usemtl Material.001_0floorupperwalls.png
f 29/61/5 17/62/5 39/63/5 31/64/5
f 4/65/5 3/66/5 37/67/5 25/68/5
f 23/69/5 11/70/5 9/71/5 7/72/5 19/73/5
f 21/74/5 38/75/5 23/69/5 19/73/5
f 27/76/5 33/77/5 15/78/5 13/79/5
f 49/80/5 57/81/5 56/82/5 54/83/5 52/84/5 51/85/5
f 56/82/5 57/81/5 50/86/5 58/87/5
f 49/80/5 51/85/5 53/88/5 55/89/5
usemtl Material.001_0floorextwalls.png
f 57/90/2 11/91/2 10/92/2 5/93/2
f 35/94/1 50/95/1 3/96/1 2/97/1
f 49/98/3 13/99/3 12/100/3 42/101/3
f 27/102/3 55/103/3 34/104/3 26/105/3
f 13/99/3 49/98/3 55/103/3 27/102/3
f 39/106/2 49/98/2 42/101/2 41/107/2
f 9/108/2 17/109/2 16/110/2 8/111/2
f 11/91/2 57/90/2 49/98/2 39/106/2 17/109/2 9/108/2
f 37/112/1 57/90/1 5/93/1 36/113/1
f 3/96/1 50/95/1 57/90/1 37/112/1
usemtl Material.001_NONE
f 46/114/6 44/115/6 43/116/6 5/117/6 10/118/6 8/119/6 16/120/6 41/121/6 42/122/6 47/123/6
f 47/123/1 51/124/1 52/125/1 46/114/1
f 56/126/3 58/127/3 48/128/3 43/116/3
f 46/114/4 52/125/4 54/129/4 44/115/4
f 45/130/1 53/88/1 51/124/1 47/123/1
f 44/115/3 54/131/3 56/126/3 43/116/3
f 41/121/6 16/120/6 28/132/6 30/133/6
f 47/123/6 42/122/6 12/134/6 26/135/6 34/136/6 45/130/6
f 26/135/6 12/134/6 14/137/6 32/138/6
f 8/119/6 10/118/6 22/139/6 18/140/6 6/141/6
f 5/117/6 43/116/6 48/128/6 35/142/6 2/143/6 36/144/6
f 36/144/6 2/143/6 1/145/6 24/146/6
f 18/140/6 22/139/6 40/147/6 20/148/6
usemtl Material.001_NONE_0floorextwalls.png
f 48/149/2 58/150/2 50/95/2 35/94/2
f 34/104/2 55/103/2 53/151/2 45/152/2
